<?xml version="1.0" encoding="utf-8"?>
<!-- Generator: Adobe Illustrator 15.0.2, SVG Export Plug-In . SVG Version: 6.00 Build 0)  -->
<!DOCTYPE svg PUBLIC "-//W3C//DTD SVG 1.1//EN" "http://www.w3.org/Graphics/SVG/1.1/DTD/svg11.dtd">
<svg version="1.1" id="Layer_1" xmlns="http://www.w3.org/2000/svg" xmlns:xlink="http://www.w3.org/1999/xlink" x="0px" y="0px"
	 width="352.912px" height="279.16px" viewBox="0.547 0.001 352.912 279.16" enable-background="new 0.547 0.001 352.912 279.16"
	 xml:space="preserve">
<g opacity="0.75">
	<path fill="#86BCD1" d="M26.667,118.428c47.058-3.354,79.484-19.991,99.524-26.721c4.437-1.49,13.556-3.801,18.31-3.731
		c10.111,0.146,12.854,5.466-4.199,13.06C118.416,110.442,88.801,115.142,26.667,118.428"/>
</g>
<g>
	<g>
		<g>
			<g>
				
					<linearGradient id="SVGID_1_" gradientUnits="userSpaceOnUse" x1="71.7368" y1="50.47" x2="71.7368" y2="-60.4468" gradientTransform="matrix(-0.5585 -0.8295 -0.7724 0.5201 285.7211 139.3103)">
					<stop  offset="0.4069" style="stop-color:#0074A3"/>
					<stop  offset="0.9879" style="stop-color:#0E3856"/>
				</linearGradient>
				<path fill="url(#SVGID_1_)" d="M185.5,3.637c24.988-18.749,101.206,39.618,120.619,69.519
					c17.738,29.899,12.271,69.336-9.379,88.082c-20.197,18.75-38.379,13.293-57.666-16.605
					C218.109,114.734,161.965,22.385,185.5,3.637z"/>
				
					<linearGradient id="SVGID_2_" gradientUnits="userSpaceOnUse" x1="80.793" y1="57.0588" x2="80.793" y2="-80.592" gradientTransform="matrix(-0.5585 -0.8295 -0.7724 0.5201 285.7211 139.3103)">
					<stop  offset="0.4069" style="stop-color:#0074A3"/>
					<stop  offset="0.9879" style="stop-color:#6DB7E6"/>
				</linearGradient>
				<path opacity="0.7" fill="url(#SVGID_2_)" enable-background="new    " d="M189.1,9.611
					c22.006-16.676,83.016,25.647,101.117,52.244c16.775,26.596,12.717,61.671-6.83,78.348
					c-18.398,16.677-35.31,11.821-53.312-14.771C210.744,98.837,168.24,26.287,189.1,9.611z"/>
				
					<linearGradient id="SVGID_3_" gradientUnits="userSpaceOnUse" x1="9.8315" y1="21.3723" x2="-9.8381" y2="44.7976" gradientTransform="matrix(-0.5585 -0.8295 -0.7724 0.5201 285.7211 139.3103)">
					<stop  offset="0.4069" style="stop-color:#0074A3"/>
					<stop  offset="0.9879" style="stop-color:#6DB7E6"/>
				</linearGradient>
				<path opacity="0.4" fill="url(#SVGID_3_)" enable-background="new    " d="M232.167,129.412
					c34.972,66.554,62.659,27.521,62.659,27.521C259.261,170.655,232.167,129.412,232.167,129.412z"/>
				
					<linearGradient id="SVGID_4_" gradientUnits="userSpaceOnUse" x1="28.4443" y1="-6.0881" x2="141.5861" y2="-6.0881" gradientTransform="matrix(-0.5585 -0.8295 -0.7724 0.5201 285.7211 139.3103)">
					<stop  offset="0.0385" style="stop-color:#0074A3"/>
					<stop  offset="0.9879" style="stop-color:#0E3856"/>
				</linearGradient>
				<path opacity="0.5" fill="url(#SVGID_4_)" enable-background="new    " d="M200.922,21.106
					c21.444-16.378,66.727,6.35,84.855,32.467c16.854,26.117,13.021,60.562-6.399,76.942
					c-18.308,16.375-35.222,11.612-53.257-14.507C206.807,89.891,180.59,37.482,200.922,21.106z"/>
				<path opacity="0.1" fill="#7CCAE2" enable-background="new    " d="M230.046,59.746c17.134-13.617,52.326,5.278,66.323,26.992
					c13.115,21.715,9.784,50.353-5.949,63.97c-14.967,13.613-28.505,9.652-42.438-12.061
					C233.164,116.931,213.684,73.36,230.046,59.746z"/>
			</g>
			<g>
				
					<linearGradient id="SVGID_5_" gradientUnits="userSpaceOnUse" x1="113.2212" y1="486.2361" x2="113.2212" y2="356.8051" gradientTransform="matrix(0.0523 -0.4869 0.4932 0.3684 -9.387 26.2583)">
					<stop  offset="0.4069" style="stop-color:#0074A3"/>
					<stop  offset="0.9879" style="stop-color:#0E3856"/>
				</linearGradient>
				<path fill="url(#SVGID_5_)" d="M199.645,80.007c-18.562-13.278-28.236,19.146-25.698,36.698
					c2.631,17.551,18.653,42.543,35.11,55.823c15.801,13.277,22.602,11.188,21.26-6.363
					C229.064,148.61,217.551,93.286,199.645,80.007z"/>
				
					<linearGradient id="SVGID_6_" gradientUnits="userSpaceOnUse" x1="121.5981" y1="490.1775" x2="121.5981" y2="329.6553" gradientTransform="matrix(0.0523 -0.4869 0.4932 0.3684 -9.387 26.2583)">
					<stop  offset="0.4069" style="stop-color:#0074A3"/>
					<stop  offset="0.9879" style="stop-color:#6DB7E6"/>
				</linearGradient>
				<path opacity="0.7" fill="url(#SVGID_6_)" enable-background="new    " d="M200.586,83.598
					c-16.395-11.812-25.817,11.397-23.682,27.012c2.209,15.614,16.463,37.842,31.307,49.652c14.322,11.811,20.532,9.948,19.344-5.66
					C226.438,138.987,216.461,95.409,200.586,83.598z"/>
				
					<linearGradient id="SVGID_7_" gradientUnits="userSpaceOnUse" x1="63.1313" y1="454.1824" x2="42.2713" y2="479.0255" gradientTransform="matrix(0.0523 -0.4869 0.4932 0.3684 -9.387 26.2583)">
					<stop  offset="0.4069" style="stop-color:#0074A3"/>
					<stop  offset="0.9879" style="stop-color:#6DB7E6"/>
				</linearGradient>
				<path opacity="0.4" fill="url(#SVGID_7_)" enable-background="new    " d="M228.042,156.983
					c6.565,39.625-19.517,12.981-19.517,12.981C229.92,181.196,228.042,156.983,228.042,156.983z"/>
				
					<linearGradient id="SVGID_8_" gradientUnits="userSpaceOnUse" x1="78.1274" y1="414.8152" x2="172.8144" y2="414.8152" gradientTransform="matrix(0.0523 -0.4869 0.4932 0.3684 -9.387 26.2583)">
					<stop  offset="0.0385" style="stop-color:#0074A3"/>
					<stop  offset="0.9879" style="stop-color:#0E3856"/>
				</linearGradient>
				<path opacity="0.5" fill="url(#SVGID_8_)" enable-background="new    " d="M200.217,90.217
					c-15.982-11.6-26.543,0.136-24.457,15.468c2.156,15.333,16.244,37.163,30.951,48.763c14.201,11.598,20.369,9.771,19.195-5.562
					C224.805,133.555,215.695,101.815,200.217,90.217z"/>
				<path opacity="0.1" fill="#7CCAE2" enable-background="new    " d="M202.875,112.97c-12.869-9.645-21.268,0.112-19.552,12.858
					c1.764,12.749,13.198,30.897,25.184,40.542c11.638,9.642,16.659,8.123,15.574-4.625
					C223.045,148.997,215.396,122.614,202.875,112.97z"/>
			</g>
		</g>
	</g>
	<path fill="#093E5B" d="M148.647,175.827c64.474,23.59,122.152,8.787,179.561-22.641c-5.751,13.91-11.491,27.828-17.249,41.739
		c-3.088,7.462-5.852,15.091-9.479,22.277c-1.367,2.709-4.736,6.236-7.232,6.271c-32.391,0.403-64.789,0.34-97.184,0.082
		c-3.201-0.027-7.258-1.238-9.432-3.396c-12.086-12.01-23.777-24.42-35.422-36.861C150.662,181.642,150.13,179.032,148.647,175.827"
		/>
</g>
<g>
	<path fill="#79B4C6" d="M29.312,111.323c50.595-15.079,58.203-26.62,106.438-52.668c4.813-2.599,13.874-5.727,19.127-6.429
		c11.886-1.588,17.093,3.591,0.59,15.242C124.925,89.032,100.327,97.313,29.312,111.323"/>
</g>
<g opacity="0.45">
	<path fill="#86BCD1" d="M21.667,127.142c15.735,0.547,58.121-5.962,73.141-8.384c3.37-0.543,9.8-0.959,13.193-0.331
		c7.077,1.312,8.648,5.25-4.272,8.614C92.066,129.918,75,129.554,21.667,127.142"/>
</g>
<path fill="#398B9E" d="M305.456,219.07c9.211-20.384,18.424-40.77,27.312-60.44C345.095,176.065,332.657,200.25,305.456,219.07"/>
<path fill="#398B9E" d="M154.874,171.715c21.538-8.234,38.46,9.391,58.351,10.396"/>
<g enable-background="new    ">
	<path fill="#231F20" d="M0.547,255.642c0-10.26,6.78-23.519,24.779-23.519c14.939,0,24.239,8.699,24.239,22.438
		s-9.6,24.599-24.84,24.599C7.507,279.161,0.547,266.261,0.547,255.642z M41.165,256.782c0-13.439-7.739-21.779-17.579-21.779
		c-6.899,0-14.759,3.84-14.759,18.779c0,12.479,6.9,22.38,18.419,22.38C31.445,276.162,41.165,274.122,41.165,256.782z"/>
	<path fill="#231F20" d="M55.626,277.661c-0.84-0.359-1.02-0.6-1.02-1.739c0-2.76,0.239-5.94,0.3-6.78
		c0-0.779,0.239-1.319,0.66-1.319c0.479,0,0.54,0.479,0.54,0.84c0,0.66,0.18,1.74,0.479,2.64c1.14,3.78,5.1,5.04,8.399,5.04
		c4.561,0,7.32-2.88,7.32-6.479c0-2.221-0.54-4.44-5.22-7.2l-3.061-1.8c-6.239-3.66-8.279-7.08-8.279-11.58
		c0-6.239,6-10.259,13.319-10.259c3.42,0,6.12,0.479,7.5,0.84c0.479,0.12,0.72,0.3,0.72,0.659c0,0.66-0.18,2.101-0.18,6.121
		c0,1.079-0.24,1.619-0.66,1.619c-0.36,0-0.54-0.3-0.54-0.9c0-0.479-0.24-2.039-1.38-3.359c-0.78-0.96-2.46-2.4-5.88-2.4
		c-3.78,0-7.2,1.98-7.2,5.461c0,2.279,0.841,4.079,5.58,6.719l2.16,1.2c6.96,3.84,9.119,7.739,9.119,12.359
		c0,3.78-1.439,6.84-5.279,9.54c-2.521,1.8-6,2.1-8.819,2.1C61.146,278.981,57.906,278.681,55.626,277.661z"/>
	<path fill="#231F20" d="M88.745,273.462c-5.22-4.38-6.6-10.14-6.6-15.06c0-3.479,1.14-9.479,6.18-13.979
		c3.84-3.359,8.88-5.399,16.739-5.399c3.3,0,5.28,0.239,7.68,0.54c1.98,0.3,3.72,0.66,5.28,0.84c0.6,0.06,0.779,0.3,0.779,0.6
		c0,0.42-0.12,1.02-0.239,2.82c-0.12,1.68-0.12,4.5-0.181,5.52c-0.06,0.72-0.24,1.26-0.72,1.26c-0.42,0-0.54-0.42-0.54-1.08
		c-0.06-1.619-0.72-3.42-2.04-4.739c-1.8-1.74-5.34-3-10.199-3c-4.62,0-7.56,0.84-9.96,2.88c-3.899,3.359-4.859,8.279-4.859,13.26
		c0,12.119,9.359,17.879,16.439,17.879c4.68,0,7.26-0.36,9.359-2.7c0.899-1.02,1.62-2.46,1.8-3.42c0.12-0.779,0.24-1.02,0.66-1.02
		c0.359,0,0.6,0.479,0.6,0.899c0,0.601-0.6,5.04-1.14,6.78c-0.24,0.899-0.48,1.14-1.38,1.5c-2.101,0.84-6.12,1.14-9.54,1.14
		C99.665,278.981,93.545,277.481,88.745,273.462z"/>
	<path fill="#231F20" d="M129.485,265.482c-0.301,0-0.36,0.06-0.48,0.359l-2.819,6.84c-0.54,1.26-0.78,2.521-0.78,3.12
		c0,0.9,0.479,1.439,2.1,1.439h0.78c0.66,0,0.78,0.24,0.78,0.54c0,0.42-0.301,0.54-0.841,0.54c-1.739,0-4.199-0.18-5.879-0.18
		c-0.54,0-3.36,0.18-6.12,0.18c-0.66,0-0.96-0.12-0.96-0.54c0-0.3,0.18-0.54,0.6-0.54c0.48,0,1.08-0.06,1.561-0.06
		c2.399-0.36,3.3-1.92,4.38-4.5l13.799-32.099c0.601-1.439,1.021-2.04,1.561-2.04c0.779,0,1.02,0.48,1.56,1.62
		c1.26,2.82,10.079,23.699,13.439,31.438c2.04,4.62,3.54,5.28,4.5,5.46c0.78,0.12,1.38,0.18,1.979,0.18
		c0.48,0,0.721,0.181,0.721,0.54c0,0.42-0.301,0.54-2.28,0.54c-1.86,0-5.7,0-10.14-0.12c-0.96-0.06-1.56-0.06-1.56-0.42
		c0-0.3,0.119-0.479,0.659-0.54c0.36-0.06,0.721-0.539,0.48-1.14l-4.08-10.26c-0.12-0.3-0.3-0.359-0.54-0.359H129.485z
		 M140.765,262.662c0.24,0,0.3-0.12,0.24-0.3l-4.98-12.959c-0.06-0.181-0.12-0.48-0.239-0.48c-0.181,0-0.24,0.3-0.301,0.48
		l-5.1,12.898c-0.12,0.24,0,0.36,0.181,0.36H140.765z"/>
	<path fill="#231F20" d="M162.124,254.503c0-7.74,0-9.18-0.06-10.8c-0.12-1.74-0.601-2.28-2.28-2.76
		c-0.42-0.12-1.32-0.181-2.1-0.181c-0.54,0-0.9-0.18-0.9-0.539c0-0.36,0.42-0.48,1.2-0.48c2.76,0,6.119,0.12,7.199,0.12
		c1.8,0,6.6-0.12,8.22-0.12c3.36,0,7.2,0.3,10.02,2.16c1.5,1.02,3.72,3.6,3.72,7.02c0,3.779-2.159,7.14-7.319,11.279
		c4.68,5.76,8.399,10.38,11.58,13.56c2.939,2.94,4.799,3.18,5.64,3.36c0.54,0.119,0.84,0.119,1.26,0.119s0.66,0.301,0.66,0.54
		c0,0.42-0.36,0.54-1.021,0.54h-5.04c-2.939,0-4.38-0.3-5.76-1.02c-2.279-1.14-4.26-3.54-7.199-7.5c-2.1-2.76-4.32-6.18-4.979-6.959
		c-0.301-0.301-0.601-0.36-0.96-0.36l-4.74-0.12c-0.24,0-0.42,0.12-0.42,0.42v0.72c0,4.74,0.06,8.7,0.3,10.859
		c0.18,1.5,0.42,2.46,2.04,2.7c0.78,0.12,1.92,0.18,2.58,0.18c0.42,0,0.66,0.301,0.66,0.54c0,0.36-0.42,0.54-1.08,0.54
		c-3.06,0-7.439-0.18-8.22-0.18c-1.021,0-4.38,0.18-6.479,0.18c-0.66,0-1.021-0.18-1.021-0.54c0-0.239,0.18-0.54,0.84-0.54
		c0.78,0,1.38-0.06,1.86-0.18c1.08-0.24,1.38-1.2,1.56-2.7c0.24-2.159,0.24-6.18,0.24-10.859V254.503z M168.844,258.462
		c0,0.541,0.12,0.721,0.479,0.9c1.141,0.359,2.7,0.48,4.021,0.48c2.1,0,2.819-0.181,3.72-0.84c1.62-1.141,3.42-3.36,3.42-7.561
		c0-7.199-4.92-9.06-8.04-9.06c-1.319,0-2.58,0.06-3.12,0.181c-0.359,0.119-0.479,0.3-0.479,0.72V258.462z"/>
	<path fill="#231F20" d="M213.183,277.601c-0.96-0.42-1.141-0.72-1.141-2.04c0-3.3,0.24-6.899,0.301-7.859
		c0.06-0.9,0.239-1.561,0.72-1.561c0.54,0,0.6,0.54,0.6,1.021c0,0.78,0.24,2.04,0.54,3.06c1.32,4.44,4.86,6.06,8.58,6.06
		c5.399,0,8.039-3.659,8.039-6.839c0-2.94-0.899-5.7-5.88-9.6l-2.76-2.16c-6.6-5.16-8.879-9.359-8.879-14.22
		c0-6.6,5.52-11.339,13.859-11.339c3.899,0,6.419,0.6,7.979,1.02c0.54,0.12,0.84,0.3,0.84,0.72c0,0.78-0.24,2.521-0.24,7.2
		c0,1.319-0.18,1.8-0.66,1.8c-0.42,0-0.6-0.36-0.6-1.08c0-0.54-0.3-2.399-1.56-3.96c-0.9-1.141-2.641-2.939-6.54-2.939
		c-4.439,0-7.14,2.58-7.14,6.18c0,2.76,1.38,4.859,6.359,8.639l1.681,1.261c7.259,5.46,9.839,9.6,9.839,15.299
		c0,3.48-1.319,7.62-5.64,10.44c-3,1.92-6.359,2.459-9.539,2.459C218.462,279.161,215.763,278.741,213.183,277.601z"/>
	<path fill="#231F20" d="M249.482,265.482c-0.301,0-0.36,0.06-0.48,0.359l-2.819,6.84c-0.54,1.26-0.78,2.521-0.78,3.12
		c0,0.9,0.479,1.439,2.1,1.439h0.78c0.66,0,0.78,0.24,0.78,0.54c0,0.42-0.301,0.54-0.841,0.54c-1.739,0-4.199-0.18-5.879-0.18
		c-0.54,0-3.36,0.18-6.12,0.18c-0.66,0-0.96-0.12-0.96-0.54c0-0.3,0.18-0.54,0.6-0.54c0.48,0,1.08-0.06,1.561-0.06
		c2.399-0.36,3.3-1.92,4.38-4.5l13.799-32.099c0.601-1.439,1.021-2.04,1.561-2.04c0.779,0,1.02,0.48,1.56,1.62
		c1.26,2.82,10.08,23.699,13.439,31.438c2.04,4.62,3.54,5.28,4.5,5.46c0.779,0.12,1.38,0.18,1.979,0.18c0.48,0,0.72,0.181,0.72,0.54
		c0,0.42-0.3,0.54-2.279,0.54c-1.86,0-5.7,0-10.14-0.12c-0.96-0.06-1.56-0.06-1.56-0.42c0-0.3,0.119-0.479,0.659-0.54
		c0.36-0.06,0.721-0.539,0.48-1.14l-4.08-10.26c-0.12-0.3-0.3-0.359-0.54-0.359H249.482z M260.762,262.662c0.24,0,0.3-0.12,0.24-0.3
		l-4.98-12.959c-0.06-0.181-0.12-0.48-0.239-0.48c-0.181,0-0.24,0.3-0.301,0.48l-5.1,12.898c-0.12,0.24,0,0.36,0.18,0.36H260.762z"
		/>
	<path fill="#231F20" d="M282.121,254.503c0-7.74,0-9.18-0.06-10.8c-0.12-1.74-0.66-2.34-1.801-2.7c-0.6-0.18-1.26-0.24-1.92-0.24
		c-0.539,0-0.84-0.119-0.84-0.6c0-0.3,0.42-0.42,1.26-0.42c1.98,0,5.58,0.12,7.08,0.12c1.32,0,4.74-0.12,6.78-0.12
		c0.659,0,1.079,0.12,1.079,0.42c0,0.48-0.3,0.6-0.84,0.6s-0.96,0.061-1.56,0.181c-1.44,0.239-1.86,0.96-1.979,2.76
		c-0.12,1.62-0.12,3.06-0.12,10.8v8.999c0,4.92,0,9,0.239,11.16c0.181,1.38,0.54,2.159,2.101,2.399c0.72,0.12,1.92,0.18,2.699,0.18
		c0.601,0,0.841,0.301,0.841,0.54c0,0.36-0.421,0.54-1.021,0.54c-3.479,0-7.08-0.18-8.52-0.18c-1.2,0-4.8,0.18-6.899,0.18
		c-0.66,0-1.021-0.18-1.021-0.54c0-0.239,0.181-0.54,0.84-0.54c0.78,0,1.38-0.06,1.86-0.18c1.08-0.24,1.38-0.96,1.56-2.46
		c0.24-2.1,0.24-6.18,0.24-11.1V254.503z"/>
	<path fill="#231F20" d="M310.621,263.502c0,6.54,0,9.78,1.14,10.74c0.9,0.779,2.939,1.079,7.02,1.079c2.82,0,4.86-0.06,6.18-1.439
		c0.66-0.66,1.2-2.1,1.32-3.06c0.06-0.48,0.18-0.78,0.6-0.78c0.36,0,0.48,0.54,0.48,1.14c0,0.601-0.36,4.38-0.78,5.88
		c-0.36,1.14-0.6,1.38-3.36,1.38c-3.779,0-6.839-0.06-9.479-0.18c-2.64-0.061-4.859-0.12-7.02-0.12c-0.6,0-1.739,0.06-3,0.06
		c-1.26,0.061-2.579,0.12-3.659,0.12c-0.66,0-1.021-0.18-1.021-0.54c0-0.239,0.181-0.54,0.84-0.54c0.78,0,1.38-0.06,1.86-0.18
		c1.08-0.24,1.38-1.2,1.56-2.7c0.24-2.159,0.24-6.18,0.24-10.859v-8.999c0-7.74,0-9.18-0.06-10.8c-0.12-1.74-0.601-2.28-2.28-2.76
		c-0.42-0.12-1.08-0.181-1.74-0.181c-0.6,0-0.899-0.18-0.899-0.539c0-0.36,0.359-0.48,1.14-0.48c2.46,0,5.819,0.12,7.26,0.12
		c1.26,0,5.58-0.12,7.62-0.12c0.779,0,1.14,0.12,1.14,0.48c0,0.359-0.3,0.539-0.96,0.539c-0.601,0-1.44,0.061-2.04,0.181
		c-1.44,0.239-1.86,0.96-1.979,2.76c-0.12,1.62-0.12,3.06-0.12,10.8V263.502z"/>
	<path fill="#231F20" d="M330.78,277.661c-0.84-0.359-1.02-0.6-1.02-1.739c0-2.76,0.239-5.94,0.3-6.78
		c0-0.779,0.239-1.319,0.66-1.319c0.479,0,0.54,0.479,0.54,0.84c0,0.66,0.18,1.74,0.479,2.64c1.14,3.78,5.1,5.04,8.399,5.04
		c4.561,0,7.32-2.88,7.32-6.479c0-2.221-0.54-4.44-5.22-7.2l-3.061-1.8c-6.239-3.66-8.279-7.08-8.279-11.58
		c0-6.239,6-10.259,13.319-10.259c3.42,0,6.12,0.479,7.5,0.84c0.479,0.12,0.72,0.3,0.72,0.659c0,0.66-0.18,2.101-0.18,6.121
		c0,1.079-0.24,1.619-0.66,1.619c-0.36,0-0.54-0.3-0.54-0.9c0-0.479-0.24-2.039-1.38-3.359c-0.78-0.96-2.46-2.4-5.88-2.4
		c-3.78,0-7.2,1.98-7.2,5.461c0,2.279,0.841,4.079,5.58,6.719l2.16,1.2c6.96,3.84,9.119,7.739,9.119,12.359
		c0,3.78-1.439,6.84-5.279,9.54c-2.521,1.8-6,2.1-8.819,2.1C336.3,278.981,333.061,278.681,330.78,277.661z"/>
</g>
</svg>
