<?xml version="1.0" encoding="utf-8"?>
<!-- Generator: Adobe Illustrator 15.0.2, SVG Export Plug-In . SVG Version: 6.00 Build 0)  -->
<!DOCTYPE svg PUBLIC "-//W3C//DTD SVG 1.1//EN" "http://www.w3.org/Graphics/SVG/1.1/DTD/svg11.dtd">
<svg version="1.1" id="Layer_1" xmlns="http://www.w3.org/2000/svg" xmlns:xlink="http://www.w3.org/1999/xlink" x="0px" y="0px"
	 width="433.558px" height="317.302px" viewBox="0 0 433.558 317.302" enable-background="new 0 0 433.558 317.302"
	 xml:space="preserve">
<path fill-rule="evenodd" clip-rule="evenodd" d="M128.873,202.475c64.474,23.59,122.151,8.786,179.562-22.642
	c-5.75,13.913-11.493,27.829-17.251,41.741c-3.088,7.461-5.852,15.09-9.479,22.278c-1.367,2.709-4.736,6.236-7.232,6.269
	c-32.391,0.404-64.789,0.341-97.183,0.082c-3.201-0.026-7.258-1.237-9.431-3.396c-12.086-12.01-23.777-24.421-35.422-36.863
	C130.888,208.289,130.356,205.68,128.873,202.475"/>
<path fill-rule="evenodd" clip-rule="evenodd" d="M285.683,245.717c9.211-20.384,18.424-40.769,27.312-60.441
	C325.321,202.712,312.884,226.896,285.683,245.717"/>
<path fill-rule="evenodd" clip-rule="evenodd" d="M135.101,198.361c21.538-8.236,38.46,9.389,58.351,10.396
	C173.226,210.007,153.522,208.043,135.101,198.361"/>
<path fill-rule="evenodd" clip-rule="evenodd" d="M200.558,196.969c-39-49.5,0-136,0-136S129,109.277,130.185,140.046
	S221.845,223.987,200.558,196.969"/>
<path fill-rule="evenodd" clip-rule="evenodd" d="M209.558,201.969c4.5-11.5,51-97,0-197.738
	c-10.5-22.762,99,50.738,102.319,114.975C315.244,184.376,205.058,213.469,209.558,201.969"/>
<rect x="-158.442" y="-79.031" fill="none" width="841.89" height="595.28"/>
<text transform="matrix(1 0 0 1 0 317.3018)"><tspan x="0" y="0" font-family="'TrajanPro-Bold'" font-size="60" letter-spacing="-4">E</tspan><tspan x="33.779" y="0" font-family="'TrajanPro-Bold'" font-size="60" letter-spacing="-3">d</tspan><tspan x="80.039" y="0" font-family="'TrajanPro-Bold'" font-size="60" letter-spacing="-3">d</tspan><tspan x="126.358" y="0" font-family="'TrajanPro-Bold'" font-size="60" letter-spacing="-2">i</tspan><tspan x="147.838" y="0" font-family="'TrajanPro-Bold'" font-size="60" letter-spacing="-3">s</tspan><tspan x="177.238" y="0" font-family="'TrajanPro-Bold'" font-size="60" letter-spacing="-4">o</tspan><tspan x="222.058" y="0" font-family="'TrajanPro-Bold'" font-size="60" letter-spacing="-2">n Sa</tspan><tspan x="351.595" y="0" font-family="'TrajanPro-Bold'" font-size="60" letter-spacing="-3">i</tspan><tspan x="373.015" y="0" font-family="'TrajanPro-Bold'" font-size="60" letter-spacing="-2">l</tspan><tspan x="403.193" y="0" font-family="'TrajanPro-Bold'" font-size="60">s</tspan></text>
</svg>
