<?xml version="1.0" encoding="utf-8"?>
<!-- Generator: Adobe Illustrator 15.0.2, SVG Export Plug-In . SVG Version: 6.00 Build 0)  -->
<!DOCTYPE svg PUBLIC "-//W3C//DTD SVG 1.1//EN" "http://www.w3.org/Graphics/SVG/1.1/DTD/svg11.dtd">
<svg version="1.1" id="Layer_1" xmlns="http://www.w3.org/2000/svg" xmlns:xlink="http://www.w3.org/1999/xlink" x="0px" y="0px"
	 width="354px" height="278.142px" viewBox="0 0 354 278.142" enable-background="new 0 0 354 278.142" xml:space="preserve">
<g opacity="0.75">
	<path fill="#86BCD1" d="M26.667,118.428c47.058-3.354,79.484-19.991,99.524-26.72c4.437-1.49,13.556-3.801,18.31-3.732
		c10.111,0.146,12.854,5.466-4.199,13.06C118.416,110.442,88.801,115.142,26.667,118.428"/>
</g>
<g>
	<g>
		<g>
			<g>
				
					<linearGradient id="SVGID_1_" gradientUnits="userSpaceOnUse" x1="209.7021" y1="165.999" x2="209.7021" y2="276.9152" gradientTransform="matrix(-0.5585 -0.8295 0.7724 -0.5201 195.5753 366.3386)">
					<stop  offset="0.4069" style="stop-color:#0074A3"/>
					<stop  offset="0.9879" style="stop-color:#0E3856"/>
				</linearGradient>
				<path fill="url(#SVGID_1_)" d="M185.5,3.637c24.989-18.749,101.206,39.619,120.619,69.519
					c17.738,29.899,12.271,69.336-9.379,88.082c-20.197,18.75-38.378,13.293-57.666-16.605
					C218.11,114.734,161.965,22.385,185.5,3.637z"/>
				
					<linearGradient id="SVGID_2_" gradientUnits="userSpaceOnUse" x1="218.7559" y1="159.4102" x2="218.7559" y2="297.061" gradientTransform="matrix(-0.5585 -0.8295 0.7724 -0.5201 195.5753 366.3386)">
					<stop  offset="0.4069" style="stop-color:#0074A3"/>
					<stop  offset="0.9879" style="stop-color:#6DB7E6"/>
				</linearGradient>
				<path opacity="0.7" fill="url(#SVGID_2_)" d="M189.1,9.611c22.005-16.676,83.015,25.648,101.117,52.244
					c16.775,26.596,12.717,61.671-6.83,78.348c-18.399,16.677-35.31,11.821-53.312-14.771C210.744,98.837,168.24,26.287,189.1,9.611
					z"/>
				
					<linearGradient id="SVGID_3_" gradientUnits="userSpaceOnUse" x1="147.7949" y1="195.0986" x2="128.1251" y2="171.6731" gradientTransform="matrix(-0.5585 -0.8295 0.7724 -0.5201 195.5753 366.3386)">
					<stop  offset="0.4069" style="stop-color:#0074A3"/>
					<stop  offset="0.9879" style="stop-color:#6DB7E6"/>
				</linearGradient>
				<path opacity="0.4" fill="url(#SVGID_3_)" d="M232.167,129.412c34.972,66.554,62.659,27.521,62.659,27.521
					C259.261,170.655,232.167,129.412,232.167,129.412z"/>
				
					<linearGradient id="SVGID_4_" gradientUnits="userSpaceOnUse" x1="166.4102" y1="222.5615" x2="279.552" y2="222.5615" gradientTransform="matrix(-0.5585 -0.8295 0.7724 -0.5201 195.5753 366.3386)">
					<stop  offset="0.0385" style="stop-color:#0074A3"/>
					<stop  offset="0.9879" style="stop-color:#0E3856"/>
				</linearGradient>
				<path opacity="0.5" fill="url(#SVGID_4_)" d="M200.922,21.106c21.444-16.378,66.727,6.35,84.855,32.467
					c16.854,26.117,13.022,60.563-6.399,76.942c-18.308,16.375-35.222,11.613-53.257-14.506
					C206.807,89.891,180.59,37.482,200.922,21.106z"/>
				<path opacity="0.1" fill="#7CCAE2" d="M230.046,59.746c17.134-13.617,52.326,5.278,66.323,26.992
					c13.115,21.715,9.784,50.353-5.949,63.97c-14.967,13.613-28.505,9.652-42.438-12.061
					C233.164,116.931,213.683,73.36,230.046,59.746z"/>
			</g>
			<g>
				
					<linearGradient id="SVGID_5_" gradientUnits="userSpaceOnUse" x1="315.3506" y1="-49.688" x2="315.3506" y2="79.743" gradientTransform="matrix(0.0523 -0.4869 -0.4932 -0.3684 195.3464 285.5096)">
					<stop  offset="0.4069" style="stop-color:#0074A3"/>
					<stop  offset="0.9879" style="stop-color:#0E3856"/>
				</linearGradient>
				<path fill="url(#SVGID_5_)" d="M199.645,80.007c-18.562-13.279-28.237,19.145-25.698,36.698
					c2.631,17.551,18.653,42.543,35.11,55.823c15.8,13.277,22.601,11.188,21.259-6.363
					C229.065,148.61,217.551,93.286,199.645,80.007z"/>
				
					<linearGradient id="SVGID_6_" gradientUnits="userSpaceOnUse" x1="323.7285" y1="-53.6294" x2="323.7285" y2="106.8928" gradientTransform="matrix(0.0523 -0.4869 -0.4932 -0.3684 195.3464 285.5096)">
					<stop  offset="0.4069" style="stop-color:#0074A3"/>
					<stop  offset="0.9879" style="stop-color:#6DB7E6"/>
				</linearGradient>
				<path opacity="0.7" fill="url(#SVGID_6_)" d="M200.586,83.598c-16.394-11.811-25.817,11.398-23.682,27.012
					c2.209,15.614,16.463,37.842,31.307,49.652c14.322,11.811,20.532,9.949,19.344-5.66
					C226.438,138.987,216.461,95.409,200.586,83.598z"/>
				
					<linearGradient id="SVGID_7_" gradientUnits="userSpaceOnUse" x1="265.2773" y1="-17.6289" x2="244.4176" y2="-42.4716" gradientTransform="matrix(0.0523 -0.4869 -0.4932 -0.3684 195.3464 285.5096)">
					<stop  offset="0.4069" style="stop-color:#0074A3"/>
					<stop  offset="0.9879" style="stop-color:#6DB7E6"/>
				</linearGradient>
				<path opacity="0.4" fill="url(#SVGID_7_)" d="M228.042,156.983c6.565,39.625-19.516,12.982-19.516,12.982
					C229.92,181.196,228.042,156.983,228.042,156.983z"/>
				
					<linearGradient id="SVGID_8_" gradientUnits="userSpaceOnUse" x1="280.2783" y1="21.7168" x2="374.9648" y2="21.7168" gradientTransform="matrix(0.0523 -0.4869 -0.4932 -0.3684 195.3464 285.5096)">
					<stop  offset="0.0385" style="stop-color:#0074A3"/>
					<stop  offset="0.9879" style="stop-color:#0E3856"/>
				</linearGradient>
				<path opacity="0.5" fill="url(#SVGID_8_)" d="M200.217,90.217c-15.983-11.6-26.543,0.135-24.457,15.467
					c2.156,15.333,16.244,37.163,30.951,48.763c14.201,11.598,20.369,9.771,19.195-5.561
					C224.805,133.555,215.696,101.815,200.217,90.217z"/>
				<path opacity="0.1" fill="#7CCAE2" d="M202.875,112.97c-12.869-9.644-21.268,0.113-19.552,12.859
					c1.764,12.749,13.198,30.897,25.184,40.542c11.638,9.641,16.659,8.123,15.574-4.625
					C223.045,148.997,215.396,122.614,202.875,112.97z"/>
			</g>
		</g>
	</g>
	<path fill-rule="evenodd" clip-rule="evenodd" fill="#093E5B" d="M148.647,175.827c64.474,23.59,122.152,8.787,179.561-22.641
		c-5.751,13.91-11.491,27.828-17.249,41.74c-3.088,7.461-5.852,15.09-9.479,22.277c-1.367,2.709-4.736,6.236-7.232,6.27
		c-32.391,0.404-64.789,0.34-97.184,0.082c-3.201-0.027-7.258-1.238-9.431-3.396c-12.086-12.01-23.777-24.42-35.422-36.861
		C150.662,181.642,150.13,179.032,148.647,175.827"/>
</g>
<g>
	<path fill="#79B4C6" d="M29.312,111.323c50.595-15.079,58.203-26.62,106.438-52.668c4.813-2.599,13.874-5.727,19.127-6.429
		c11.886-1.588,17.093,3.591,0.59,15.243C124.925,89.032,100.327,97.313,29.312,111.323"/>
</g>
<g opacity="0.45">
	<path fill="#86BCD1" d="M21.667,127.142c15.735,0.547,58.121-5.962,73.141-8.383c3.37-0.543,9.8-0.959,13.193-0.331
		c7.077,1.311,8.648,5.25-4.272,8.614C92.066,129.918,75,129.554,21.667,127.142"/>
</g>
<path fill-rule="evenodd" clip-rule="evenodd" fill="#398B9E" d="M305.456,219.07c9.211-20.384,18.424-40.769,27.312-60.44
	C345.095,176.065,332.657,200.25,305.456,219.07"/>
<path fill-rule="evenodd" clip-rule="evenodd" fill="#398B9E" d="M154.874,171.715c21.538-8.235,38.46,9.39,58.351,10.396"/>
<text transform="matrix(1 0 0 1 -2.7529 278.1416)" fill="#231F20" font-family="'TrajanPro-Bold'" font-size="60" letter-spacing="-3">Oscar Sails</text>
</svg>
