<svg width="100" height="30" viewBox="0 0 100 30" fill="none" xmlns="http://www.w3.org/2000/svg">
<path d="M20.421 9.99885V19.9978H10.2105V29.9966H20.421H30.6315V19.9978V9.99885V0H20.421V9.99885Z" fill="#EF3924"/>
<path d="M10.2105 9.99884H0V19.9977H10.2105V9.99884Z" fill="#EF3924"/>
<path d="M49.6843 20.0012C46.8625 20.0012 44.5773 17.7633 44.5773 15C44.5773 12.2366 46.8625 10.0023 49.6843 10.0023C52.5061 10.0023 54.7913 12.2366 54.7913 15C54.7913 17.7633 52.5061 20.0012 49.6843 20.0012ZM49.6843 0.00341797C41.2259 0.00341797 34.3668 6.71689 34.3668 15V30H64.9983V15C64.9983 10.8584 63.2853 7.11017 60.5132 4.39554C57.7411 1.6844 53.9135 0.00690174 49.6843 0.00690174" fill="#EF3924"/>
<path d="M88.9661 0.0730591V10.0232H78.8054V0.0730591H68.6446V10.0232V19.9768H78.8054V29.927H88.9661V19.9768H99.1304V10.0232V0.0730591H88.9661Z" fill="#EF3924"/>
</svg>
