<?xml version="1.0" encoding="UTF-8"?>
<svg width="113px" height="70px" viewBox="0 0 113 70" version="1.1" xmlns="http://www.w3.org/2000/svg" xmlns:xlink="http://www.w3.org/1999/xlink">
    <!-- Generator: Sketch 47.1 (45422) - http://www.bohemiancoding.com/sketch -->
    <title>Logo</title>
    <desc>Created with Sketch.</desc>
    <defs>
        <linearGradient x1="50%" y1="99.9959001%" x2="50%" y2="-0.930730318%" id="linearGradient-1">
            <stop stop-color="#043D5B" offset="0%"></stop>
            <stop stop-color="#0076A5" offset="66%"></stop>
        </linearGradient>
        <linearGradient x1="36.6862736%" y1="89.9176763%" x2="60.5493767%" y2="6.77826554%" id="linearGradient-2">
            <stop stop-color="#0683B9" stop-opacity="0" offset="33%"></stop>
            <stop stop-color="#0584B8" offset="66%"></stop>
            <stop stop-color="#0076A6" offset="100%"></stop>
        </linearGradient>
        <linearGradient x1="53.1345774%" y1="31.4378623%" x2="36.7676726%" y2="90.7469199%" id="linearGradient-3">
            <stop stop-color="#078CBD" offset="33%"></stop>
            <stop stop-color="#00688A" offset="100%"></stop>
        </linearGradient>
        <linearGradient x1="45.5896358%" y1="100.68903%" x2="50.2724542%" y2="39.1491982%" id="linearGradient-4">
            <stop stop-color="#00394D" stop-opacity="0.5" offset="0%"></stop>
            <stop stop-color="#004861" stop-opacity="0" offset="65%"></stop>
        </linearGradient>
        <linearGradient x1="2.00045745%" y1="49.9866152%" x2="95.2592814%" y2="49.9866152%" id="linearGradient-5">
            <stop stop-color="#093E5B" stop-opacity="0" offset="33%"></stop>
            <stop stop-color="#093E5B" stop-opacity="0.5" offset="100%"></stop>
        </linearGradient>
        <linearGradient x1="45.8150677%" y1="100.089655%" x2="50.2965283%" y2="38.5138201%" id="linearGradient-6">
            <stop stop-color="#0ABFFF" stop-opacity="0.5" offset="0%"></stop>
            <stop stop-color="#0ABFFF" stop-opacity="0" offset="100%"></stop>
        </linearGradient>
    </defs>
    <g id="-" stroke="none" stroke-width="1" fill="none" fill-rule="evenodd">
        <g id="Sidebar/Default" transform="translate(-15.000000, -15.000000)" fill-rule="nonzero">
            <g id="Logo" transform="translate(15.000000, 15.000000)">
                <path d="M32.1224593,0.0273524611 C32.1224593,0.0273524611 0,-2.09507193 0,31.0522031 C0,31.0522031 0.31300813,48.4295528 12.8333333,59.6503112 C25.7683943,71.237812 39.7207317,69.9581149 39.7207317,69.9581149 C39.7207317,69.9581149 59.6515244,69.5445543 87.0397358,56.825614 C111.947358,45.2537193 112.682927,34.9537185 112.682927,31.5515971 C112.682927,28.8127333 110.335366,5.11492857 32.1224593,0.0273524611 Z" id="Shape" fill="url(#linearGradient-1)"></path>
                <path d="M1.77902095,33.872124 C1.77902095,33.872124 -1.84956874,-1.28736613 42.5188948,1.91329397 C86.8873584,5.11395408 107.553189,22.5265005 107.560976,31.3721059 C107.560976,40.4963757 106.050361,47.6620327 70.9636118,62.9248819 C35.8768626,78.1877312 4.80025013,58.514022 1.77902095,33.872124 Z" id="Shape" fill="url(#linearGradient-2)"></path>
                <path d="M26.7464382,10.2498663 C26.7464382,10.2498663 74.4155113,9.22749805 73.3985921,33.954544 C72.3501405,59.9258676 35.2995959,61.4633826 35.0158045,61.4633826 C35.0158045,61.4633826 7.35402548,61.6694413 8.57590514,29.0329108 C8.57590514,29.0329108 9.60070744,11.7873813 26.7464382,10.2498663 Z" id="Shape" fill="url(#linearGradient-3)"></path>
                <path d="M55.1499057,6.952566 C55.1499057,6.952566 99.0243902,9.94883213 99.0243902,34.244815 C99.0243902,58.5407979 60.0404983,66.337448 60.0404983,66.337448 C60.0404983,66.337448 26.3932211,71.3365233 20.962707,36.438368 C15.7512916,3.24895853 55.1499057,6.952566 55.1499057,6.952566 Z" id="Shape" fill="url(#linearGradient-4)"></path>
                <path d="M53.0298071,5.24891656 C53.0298071,5.24891656 100.731707,8.33000867 100.731707,33.3202068 C100.731707,58.310405 58.3572439,66.3307736 58.3572439,66.3307736 C58.3572439,66.3307736 21.8160865,71.4685741 15.8800257,35.5833802 C10.2285164,1.43725621 53.0298071,5.24891656 53.0298071,5.24891656 Z" id="Shape" fill="url(#linearGradient-5)"></path>
                <path d="M53.0298071,5.24891656 C53.0298071,5.24891656 100.731707,8.33000867 100.731707,33.3202068 C100.731707,58.310405 58.3572439,66.3307736 58.3572439,66.3307736 C58.3572439,66.3307736 21.8160865,71.4685741 15.8800257,35.5833802 C10.2285164,1.43725621 53.0298071,5.24891656 53.0298071,5.24891656 Z" id="Shape" fill="url(#linearGradient-6)"></path>
                <path d="M83.6257097,31.6801924 C83.6762086,30.1441441 83.4090626,28.6146104 82.8420435,27.1933441 C82.3219446,26.052274 81.3915693,25.1649771 80.2481086,24.7195142 C78.630537,24.1232021 76.9179903,23.8488717 75.2012987,23.9110731 C73.5672144,23.861667 71.939114,24.1361068 70.4052619,24.7195142 C69.3056888,25.1386281 68.3363435,25.8564984 67.5997371,26.7972079 C67.0287873,27.5295966 66.7091177,28.4364798 66.6906844,29.3761352 C66.6763996,29.908456 66.8951339,30.4191362 67.2862706,30.7666539 C67.6762734,31.124722 68.1827037,31.3181117 68.7047063,31.3083095 C69.1275038,31.3659235 69.5548035,31.2433145 69.8880422,30.9687642 C70.2267098,30.5165105 70.5431857,30.0470253 70.8362783,29.5620766 C71.2208592,28.8975285 71.7594278,28.3419335 72.4036105,27.9451944 C73.277939,27.5368439 74.2353451,27.3537358 75.193462,27.4116232 C76.6301833,27.4116232 77.5784193,27.7215256 78.0381701,28.3413305 C78.5722066,29.2133518 78.8448214,30.2286041 78.8218362,31.259803 C77.776948,31.5670107 76.828712,31.8364911 75.9771281,32.0682442 C75.1255443,32.2999973 74.0806561,32.53714 72.8424636,32.7796724 L70.5384851,33.2728215 C69.2066064,33.5219159 67.9871547,34.2047513 67.0590075,35.2211646 C66.609762,35.730494 66.2681584,36.3306806 66.0559148,36.9835663 C65.9913371,36.8820964 65.9206691,36.7848936 65.8443249,36.6925275 C65.4783788,36.2410364 64.9335675,35.9852956 64.3631959,35.9972681 C63.896464,35.9829551 63.4421512,36.1536456 63.0936568,36.4742484 C62.6977532,36.8505821 62.3665361,37.2934101 62.1140741,37.7839231 C61.6698239,38.6361851 61.0360003,39.3676234 60.264622,39.9182077 C59.5131393,40.3992357 58.6408778,40.641067 57.7568904,40.6134671 C57.0683979,40.6233097 56.3862115,40.4770395 55.7585417,40.1849932 C55.1449779,39.8977162 54.6074099,39.4623844 54.1912094,38.9157407 C53.7418735,38.3132023 53.4092839,37.6269939 53.2116267,36.8946378 C52.9789918,36.0480459 52.8655063,35.1713572 52.8746503,34.2914573 C52.805316,32.5860459 53.2999581,30.9069689 54.2774127,29.529739 C55.7277454,27.6955664 58.2691446,27.2499736 60.2254387,28.4868499 C60.9690689,29.0578079 61.6018061,29.7681433 62.0905641,30.5807125 C62.3432625,30.9692729 62.6465022,31.3201825 62.9917802,31.6236016 C63.2822146,31.8490602 63.6395795,31.9633742 64.0027095,31.946978 C64.5837626,31.9577382 65.1460002,31.7344334 65.5700418,31.3244783 C65.9909265,30.9362234 66.228162,30.378934 66.2204847,29.7965246 C66.195008,29.1186805 65.994831,28.4600956 65.6405717,27.8886035 C65.2009843,27.146326 64.6324599,26.4940527 63.9635262,25.9645136 C63.1589562,25.3230751 62.2556074,24.8256935 61.2912247,24.4931507 C58.4081074,23.5315692 55.2725487,23.7933694 52.5768572,25.2207477 C51.1278081,26.0701363 49.9593378,27.3487727 49.2227661,28.8910705 C48.4036372,30.5905487 47.9873276,32.466367 48.0080836,34.364217 C48.0080836,34.776522 48.0080836,35.1726582 48.0551035,35.5687943 L47.9218803,35.366684 C47.3463817,34.5778389 46.6004119,33.9383901 45.7432884,33.499185 C44.5689726,32.8916969 43.3266748,32.4355441 42.0443842,32.1410039 C40.7696206,31.823017 39.7717524,31.5535367 39.0507796,31.3325627 C38.4311762,31.1723424 37.8445437,30.898506 37.3188774,30.5241216 C36.9111951,30.2284897 36.6708338,29.744665 36.6762712,29.2306158 C36.6937651,28.6200375 37.029352,28.0667417 37.5539772,27.7835061 C38.2153123,27.3743333 38.9776096,27.172117 39.7482424,27.2014285 C40.4505491,27.1679545 41.1494251,27.3210563 41.7779377,27.6460711 C42.2830407,27.9467814 42.7252227,28.3479834 43.0788235,28.8263952 C43.4349592,29.3107478 43.8394639,29.7551376 44.2856694,30.1522387 C44.6470664,30.4516732 45.0996722,30.6092211 45.5630452,30.5968813 C46.1345746,30.6283517 46.6958879,30.4314717 47.1303775,30.0471413 C47.5056603,29.6803046 47.7109979,29.165442 47.6946171,28.6323693 C47.6771932,28.0519331 47.4945903,27.4896176 47.1695608,27.0154871 C46.7545989,26.4047024 46.2208079,25.8898294 45.6022285,25.5037021 C44.8257641,25.0051309 43.9762867,24.6393097 43.0866602,24.420391 C41.974144,24.1374983 40.8312773,24.0016691 39.6855491,24.0161704 C38.2738739,23.9790553 36.870903,24.2547362 35.5713019,24.8246116 C34.5866417,25.2795133 33.7392263,26.0001046 33.1184269,26.9103897 C32.5639905,27.7351823 32.2610794,28.7120574 32.2485575,29.7156805 C31.3698981,27.4071735 29.5889275,25.5875086 27.3428074,24.7033454 C24.7622756,23.7276395 21.9299446,23.7276395 19.3494128,24.7033454 C18.1926491,25.1564433 17.1446632,25.862479 16.2774415,26.7729547 C15.4156604,27.6973126 14.753312,28.7993901 14.3339495,30.0067193 C13.8703832,31.3475642 13.6421642,32.7629055 13.6599966,34.18636 C13.6383017,35.5896108 13.8585409,36.9856707 14.3104395,38.3094098 C15.1648742,40.7511864 16.9941525,42.6971762 19.3337395,43.6532057 C20.6022729,44.1612361 21.9541631,44.4110614 23.3147635,44.3888872 C24.6847639,44.409983 26.0462332,44.1630963 27.3271341,43.6612902 C29.4073531,42.8391527 31.094386,41.2119095 32.0291309,39.1259354 C32.083707,39.9876444 32.3927399,40.8114533 32.9146737,41.4865835 C33.6428156,42.4170467 34.5974834,43.1312714 35.6810152,43.5561928 C37.1120798,44.1364395 38.6422967,44.4114558 40.1792588,44.3646339 C41.7785665,44.4119518 43.372603,44.1543243 44.8812557,43.6046993 C46.0492825,43.1818733 47.0620403,42.3968799 47.7808204,41.3572329 C48.343679,40.4885421 48.6735473,39.4815984 48.7368931,38.4387604 C49.1421869,39.6252186 49.7888111,40.708513 50.6333651,41.6159341 C52.3208596,43.4268422 54.671858,44.3322963 57.6863604,44.3322963 C58.9811407,44.3507391 60.2701827,44.1514065 61.5028145,43.7421343 C62.5237247,43.4099593 63.4753022,42.883482 64.3083393,42.1899273 C64.962448,41.6223792 65.505119,40.930828 65.9070182,40.1526556 L65.9618749,40.023305 C66.0901612,40.5562859 66.2962706,41.0660418 66.5731344,41.53509 C67.1009296,42.421519 67.8581724,43.1383029 68.759563,43.6046993 C69.7809732,44.1288898 70.9103981,44.3896572 72.0509608,44.3646339 C73.3174372,44.3825919 74.5747496,44.1407669 75.749865,43.6532057 C76.8664892,43.1586189 77.9194002,42.5231931 78.8845295,41.7614535 C78.892121,42.4328582 79.1184655,43.0821025 79.5271358,43.6046993 C79.9573933,44.1046444 80.5798707,44.3828136 81.2276913,44.3646339 C81.8856069,44.3847662 82.5198686,44.1106619 82.9674301,43.6127837 C83.4665822,42.978901 83.7106525,42.171448 83.6492197,41.3572329 L83.6492197,37.2341831 C83.6492197,37.1614234 83.6492197,32.7635036 83.6492197,32.6907439 L83.6492197,32.6907439 C83.6257097,32.3916206 83.6257097,32.0682442 83.6257097,31.6801924 Z M26.8490978,38.9399939 C26.0138062,40.069936 24.6992224,40.7118438 23.3226001,40.6619735 C22.4148296,40.6750779 21.526227,40.3921473 20.7835218,39.8535324 C20.0278165,39.2854815 19.4501896,38.5012703 19.1221496,37.5979816 C18.3432683,35.3612002 18.3432683,32.9145068 19.1221496,30.6777254 C19.4502756,29.7699747 20.0343781,28.9843831 20.7991951,28.4221746 C21.542449,27.9089844 22.4205748,27.6437091 23.3147635,27.66224 C24.6897189,27.6118297 26.0034596,28.2503142 26.8412611,29.3761352 C27.7893789,30.7729814 28.2507033,32.4600354 28.1499835,34.1621067 C28.2530598,35.8607241 27.7944337,37.5451641 26.8490978,38.9399939 L26.8490978,38.9399939 Z M43.0474769,40.4679476 C42.334273,40.9412199 41.4967295,41.1755788 40.6494585,41.1389538 C39.6602645,41.1909254 38.6762356,40.9616104 37.8047504,40.4760321 C37.052929,39.9736791 36.4357716,39.2841868 36.0101549,38.471098 C35.8068225,38.0690512 35.5422329,37.7032923 35.2264888,37.3877869 C34.8963371,37.1097124 34.4762961,36.9710499 34.0509896,36.9997351 C33.5121024,36.9834085 32.9905082,37.1968875 32.6090439,37.5898972 L32.6090439,37.5898972 C32.9168975,36.4779798 33.0699378,35.3265553 33.0635703,34.1701912 C33.0638945,33.5126492 33.0167441,32.8559954 32.9225103,32.2056792 C33.0084061,32.3462741 33.1026248,32.4812705 33.2046302,32.6098998 C33.8804933,33.4273738 34.7308147,34.0721324 35.6888518,34.4935676 C37.0148393,35.0568585 38.382896,35.5083685 39.7795891,35.8436643 C40.8955706,36.0708527 41.9747024,36.4600812 42.9847836,36.9997351 C43.6332636,37.4058439 44.0080846,38.1511204 43.9565296,38.9319095 C43.9174894,39.5758576 43.5630013,40.1548746 43.0161302,40.4679476 L43.0474769,40.4679476 Z M76.4238178,40.4679476 C75.6002764,40.9058886 74.685841,41.1306266 73.759353,41.122785 C72.9544096,41.1541584 72.1686517,40.8646588 71.5650878,40.3143438 C71.0249478,39.82448 70.7187501,39.1159687 70.726565,38.3740851 C70.6920681,37.7169739 70.9555941,37.0806489 71.4397012,36.6521055 C71.874415,36.2715554 72.3856724,35.995419 72.9365035,35.8436643 C73.4589476,35.7035345 74.4019592,35.4825606 75.7655383,35.1807426 C76.827373,34.9691562 77.8745317,34.685587 78.9002028,34.3318794 L78.9002028,35.6496384 C78.929957,36.7364619 78.7069199,37.8148272 78.2497599,38.7944745 C77.8022437,39.5214713 77.155943,40.0953681 76.3924712,40.4436944 L76.4238178,40.4679476 Z" id="Shape" fill="#FFFFFF"></path>
                <path d="M97.5070825,24.718596 C96.5781291,24.1974372 95.5356517,23.9193237 94.4739842,23.9094221 C93.5725865,23.867818 92.6862989,24.1548757 91.975669,24.718596 C91.2394678,25.3868852 90.6212955,26.1777657 90.1478282,27.0571085 C90.169045,26.2360594 89.9615675,25.4255714 89.5491904,24.718596 C89.1322455,24.1569784 88.4602407,23.8514818 87.7692406,23.9094221 C86.1728731,23.9094221 85.3746893,25.0395683 85.3746893,27.2998607 L85.3746893,41.2985686 C85.3149458,42.1193419 85.5597552,42.9331422 86.0611273,43.580439 C86.5008997,44.1030378 87.1475869,44.3996854 87.8251135,44.3896128 C88.5029785,44.405273 89.1556147,44.1288619 89.6210269,43.6289894 C90.1386082,42.9861976 90.3929102,42.1664405 90.3314105,41.3390273 L90.3314105,37.0827728 C90.3314105,35.5723149 90.3793015,34.2911229 90.4750835,33.2391969 C90.5467544,32.3153709 90.7235281,31.4030407 91.0018848,30.5203727 C91.1946984,29.8417584 91.5739633,29.2327534 92.0953966,28.7644654 C92.6012,28.3613011 93.2324824,28.1546725 93.8753464,28.1818602 C94.5034973,28.1986729 95.125364,28.3132963 95.7191509,28.5217132 C96.1445849,28.6834389 96.5862231,28.7974038 97.0361541,28.8615662 C97.5487453,28.8516179 98.0366016,28.636333 98.3930665,28.2627776 C98.8095632,27.871427 99.0393708,27.3170131 99.0236317,26.7415307 C98.9492112,25.8256043 98.3576556,25.0365245 97.5070825,24.718596 Z" id="Shape" fill="#FFFFFF"></path>
            </g>
        </g>
    </g>
</svg>